<?xml version="1.0" standalone="no"?><!-- Generator: Gravit.io --><svg xmlns="http://www.w3.org/2000/svg" xmlns:xlink="http://www.w3.org/1999/xlink" style="isolation:isolate" viewBox="16.817 9.83 40 40" width="40" height="40"><path d=" M 56.82 29.83 C 56.82 40.87 47.85 49.83 36.82 49.83 C 25.78 49.83 16.82 40.87 16.82 29.83 C 16.82 18.79 25.78 9.83 36.82 9.83 C 47.85 9.83 56.82 18.79 56.82 29.83 Z " fill="rgb(0,150,136)"/><path d=" M 56.82 29.83 C 56.82 40.87 47.85 49.83 36.82 49.83 C 25.78 49.83 16.82 40.87 16.82 29.83 C 16.82 18.79 25.78 9.83 36.82 9.83 C 47.85 9.83 56.82 18.79 56.82 29.83 Z " fill="rgb(255,153,0)"/><linearGradient id="_lgradient_0" x1="50%" y1="100%" x2="50.000000000000014%" y2="0%"><stop offset="2.1739130434782608%" stop-opacity="0" style="stop-color:rgb(255,255,255)"/><stop offset="100%" stop-opacity="0.3" style="stop-color:rgb(0,0,0)"/></linearGradient><path d=" M 56.82 29.83 C 56.82 40.87 47.85 49.83 36.82 49.83 C 25.78 49.83 16.82 40.87 16.82 29.83 C 16.82 18.79 25.78 9.83 36.82 9.83 C 47.85 9.83 56.82 18.79 56.82 29.83 Z " fill="url(#_lgradient_0)"/><g style="isolation: isolate;"><mask id="_mask_r57qUPSyhETpLMjy3HS1Lb9bv33pEvMr"><path d=" M 56.82 29.83 C 56.82 40.87 47.85 49.83 36.82 49.83 C 25.78 49.83 16.82 40.87 16.82 29.83 C 16.82 18.79 25.78 9.83 36.82 9.83 C 47.85 9.83 56.82 18.79 56.82 29.83 Z " fill="white" stroke="none"/></mask><path d=" M 56.82 29.83 C 56.82 40.87 47.85 49.83 36.82 49.83 C 25.78 49.83 16.82 40.87 16.82 29.83 C 16.82 18.79 25.78 9.83 36.82 9.83 C 47.85 9.83 56.82 18.79 56.82 29.83 Z " fill="none" mask="url(#_mask_r57qUPSyhETpLMjy3HS1Lb9bv33pEvMr)" vector-effect="non-scaling-stroke" stroke-width="2" stroke="rgb(255,255,255)" stroke-linejoin="miter" stroke-linecap="square" stroke-miterlimit="3"/></g><clipPath id="_clipPath_XmGezg0JRj8mgMuNXImwMhaUumbxiiyW"><path d=" M 56.82 29.83 C 56.82 40.87 47.85 49.83 36.82 49.83 C 25.78 49.83 16.82 40.87 16.82 29.83 C 16.82 18.79 25.78 9.83 36.82 9.83 C 47.85 9.83 56.82 18.79 56.82 29.83 Z " fill="rgb(0,150,136)"/><path d=" M 56.82 29.83 C 56.82 40.87 47.85 49.83 36.82 49.83 C 25.78 49.83 16.82 40.87 16.82 29.83 C 16.82 18.79 25.78 9.83 36.82 9.83 C 47.85 9.83 56.82 18.79 56.82 29.83 Z " fill="rgb(255,153,0)"/><linearGradient id="_lgradient_0" x1="50%" y1="100%" x2="50.000000000000014%" y2="0%"><stop offset="2.1739130434782608%" stop-opacity="0" style="stop-color:rgb(255,255,255)"/><stop offset="100%" stop-opacity="0.3" style="stop-color:rgb(0,0,0)"/></linearGradient><path d=" M 56.82 29.83 C 56.82 40.87 47.85 49.83 36.82 49.83 C 25.78 49.83 16.82 40.87 16.82 29.83 C 16.82 18.79 25.78 9.83 36.82 9.83 C 47.85 9.83 56.82 18.79 56.82 29.83 Z " fill="url(#_lgradient_0)"/><g style="isolation: isolate;"><path d=" M 56.82 29.83 C 56.82 40.87 47.85 49.83 36.82 49.83 C 25.78 49.83 16.82 40.87 16.82 29.83 C 16.82 18.79 25.78 9.83 36.82 9.83 C 47.85 9.83 56.82 18.79 56.82 29.83 Z " fill="none" mask="url(#_mask_r57qUPSyhETpLMjy3HS1Lb9bv33pEvMr)" vector-effect="non-scaling-stroke" stroke-width="2" stroke="rgb(255,255,255)" stroke-linejoin="miter" stroke-linecap="square" stroke-miterlimit="3"/></g></clipPath><g clip-path="url(#_clipPath_XmGezg0JRj8mgMuNXImwMhaUumbxiiyW)"><path d=" M 21.82 44.83 L 20.57 41.08 L 36.82 17.42 L 53.07 41.08 L 51.82 44.83 L 36.82 32.33 L 21.82 44.83 Z " fill="rgb(0,0,0)" fill-opacity="0.4"/><clipPath id="_clipPath_9WaEI3CTGRRwejHeGEfSPFLePt7ngD3F"><path d=" M 21.82 44.83 L 20.57 41.08 L 36.82 17.42 L 53.07 41.08 L 51.82 44.83 L 36.82 32.33 L 21.82 44.83 Z " fill="rgb(0,0,0)" fill-opacity="0.4"/></clipPath><g clip-path="url(#_clipPath_9WaEI3CTGRRwejHeGEfSPFLePt7ngD3F)"><rect x="36.816" y="16.175" width="18.75" height="30" transform="matrix(1,0,0,1,0,0)" fill="none"/></g><path d=" M 21.82 43.27 L 18.8 42.77 L 36.82 15.86 L 55.27 42.77 L 51.82 43.27 L 36.82 30.77 L 21.82 43.27 Z " fill="rgb(255,255,255)"/><clipPath id="_clipPath_HNscHAN8pt4P1pXiDIqXgBnWJtDocnid"><path d=" M 21.82 43.27 L 18.8 42.77 L 36.82 15.86 L 55.27 42.77 L 51.82 43.27 L 36.82 30.77 L 21.82 43.27 Z " fill="rgb(255,255,255)"/></clipPath><g clip-path="url(#_clipPath_HNscHAN8pt4P1pXiDIqXgBnWJtDocnid)"><rect x="36.816" y="14.612" width="18.75" height="30" transform="matrix(1,0,0,1,0,0)" fill="none"/></g></g></svg>