<?xml version="1.0" standalone="no"?>
<!DOCTYPE svg PUBLIC "-//W3C//DTD SVG 20010904//EN"
 "http://www.w3.org/TR/2001/REC-SVG-20010904/DTD/svg10.dtd">
<svg version="1.0" xmlns="http://www.w3.org/2000/svg"
 width="160.000000pt" height="160.000000pt" viewBox="0 0 160.000000 160.000000"
 preserveAspectRatio="xMidYMid meet">
<metadata>
Created by potrace 1.15, written by Peter Selinger 2001-2017
</metadata>
<g transform="translate(0.000000,160.000000) scale(0.100000,-0.100000)"
fill="#000000" stroke="none">
<path d="M545 548 c-137 -115 -263 -220 -279 -233 -26 -20 -28 -26 -16 -40 7
-9 19 -14 26 -11 7 3 127 102 268 221 l255 215 246 -207 c305 -257 282 -240
303 -220 10 11 13 20 7 25 -35 32 -555 462 -557 461 -2 0 -115 -95 -253 -211z"/>
<path d="M395 164 c40 -31 136 -74 211 -95 98 -27 278 -29 374 -4 68 18 191
71 225 98 18 15 -15 16 -405 16 -386 0 -423 -1 -405 -15z"/>
</g>
</svg>
